<mxfile host="app.diagrams.net" modified="2024-05-25T21:19:21.400Z" agent="Mozilla/5.0 (Windows NT 10.0; Win64; x64) AppleWebKit/537.36 (KHTML, like Gecko) Chrome/125.0.0.0 Safari/537.36" etag="NJRCn5j2OnydWGb7-6bR" version="24.4.8" type="device">
  <diagram name="Página-1" id="Kj-l54VVts99x-T9ZCAx">
    <mxGraphModel dx="1257" dy="620" grid="0" gridSize="10" guides="1" tooltips="1" connect="1" arrows="1" fold="1" page="1" pageScale="1" pageWidth="500" pageHeight="520" background="#FFFFFF" math="0" shadow="0">
      <root>
        <mxCell id="0" />
        <mxCell id="1" parent="0" />
        <mxCell id="fiDRvgdctIuqGPahOh3_-6" value="" style="rounded=0;whiteSpace=wrap;html=1;fillColor=#FFE6CC;strokeColor=#d79b00;" vertex="1" parent="1">
          <mxGeometry x="593" y="320" width="637" height="234" as="geometry" />
        </mxCell>
        <mxCell id="fiDRvgdctIuqGPahOh3_-2" value="" style="rounded=0;whiteSpace=wrap;html=1;fillColor=#d5e8d4;strokeColor=#82b366;" vertex="1" parent="1">
          <mxGeometry x="593" y="561" width="635" height="304" as="geometry" />
        </mxCell>
        <mxCell id="fiDRvgdctIuqGPahOh3_-1" value="" style="rounded=0;whiteSpace=wrap;html=1;fillColor=#dae8fc;strokeColor=#6c8ebf;" vertex="1" parent="1">
          <mxGeometry x="64" y="320" width="519" height="337" as="geometry" />
        </mxCell>
        <mxCell id="K2DvLzhH-67RUPODVml0-22" style="edgeStyle=orthogonalEdgeStyle;rounded=0;orthogonalLoop=1;jettySize=auto;html=1;entryX=0;entryY=0.5;entryDx=0;entryDy=0;" parent="1" source="hUrVYdN8rmowNbnYmtl_-1" target="hUrVYdN8rmowNbnYmtl_-16" edge="1">
          <mxGeometry relative="1" as="geometry" />
        </mxCell>
        <mxCell id="K2DvLzhH-67RUPODVml0-23" style="edgeStyle=orthogonalEdgeStyle;rounded=0;orthogonalLoop=1;jettySize=auto;html=1;entryX=0;entryY=0.5;entryDx=0;entryDy=0;" parent="1" source="hUrVYdN8rmowNbnYmtl_-1" target="K2DvLzhH-67RUPODVml0-1" edge="1">
          <mxGeometry relative="1" as="geometry" />
        </mxCell>
        <mxCell id="K2DvLzhH-67RUPODVml0-24" style="edgeStyle=orthogonalEdgeStyle;rounded=0;orthogonalLoop=1;jettySize=auto;html=1;exitX=0;exitY=0;exitDx=109;exitDy=83;exitPerimeter=0;entryX=0;entryY=0.5;entryDx=0;entryDy=0;" parent="1" source="hUrVYdN8rmowNbnYmtl_-1" target="K2DvLzhH-67RUPODVml0-2" edge="1">
          <mxGeometry relative="1" as="geometry" />
        </mxCell>
        <mxCell id="K2DvLzhH-67RUPODVml0-25" style="edgeStyle=orthogonalEdgeStyle;rounded=0;orthogonalLoop=1;jettySize=auto;html=1;exitX=0;exitY=0;exitDx=109;exitDy=83;exitPerimeter=0;entryX=0;entryY=0.5;entryDx=0;entryDy=0;" parent="1" source="hUrVYdN8rmowNbnYmtl_-1" target="K2DvLzhH-67RUPODVml0-3" edge="1">
          <mxGeometry relative="1" as="geometry" />
        </mxCell>
        <mxCell id="hUrVYdN8rmowNbnYmtl_-1" value="&lt;b&gt;Resultados das Partidas (FBREF)&lt;/b&gt;" style="shape=note;whiteSpace=wrap;html=1;backgroundOutline=1;darkOpacity=0.05;size=21;rounded=0;fillColor=#f5f5f5;strokeColor=#666666;fontColor=#333333;" parent="1" vertex="1">
          <mxGeometry x="101" y="394" width="109" height="145" as="geometry" />
        </mxCell>
        <mxCell id="K2DvLzhH-67RUPODVml0-26" style="edgeStyle=orthogonalEdgeStyle;rounded=0;orthogonalLoop=1;jettySize=auto;html=1;exitX=1;exitY=0.5;exitDx=0;exitDy=0;entryX=0.5;entryY=0;entryDx=0;entryDy=0;" parent="1" source="hUrVYdN8rmowNbnYmtl_-16" target="K2DvLzhH-67RUPODVml0-4" edge="1">
          <mxGeometry relative="1" as="geometry" />
        </mxCell>
        <mxCell id="hUrVYdN8rmowNbnYmtl_-16" value="Resultados e Calendários" style="rounded=0;whiteSpace=wrap;html=1;align=center;" parent="1" vertex="1">
          <mxGeometry x="280.5" y="344" width="120" height="60" as="geometry" />
        </mxCell>
        <mxCell id="hUrVYdN8rmowNbnYmtl_-87" value="&lt;h1 style=&quot;margin-top: 0px;&quot;&gt;Campeonato Brasileiro - Série B&lt;/h1&gt;&lt;p&gt;Ferramentas utilizadas: Python, PostgreSQL e Streamlit.&lt;/p&gt;" style="text;html=1;whiteSpace=wrap;overflow=hidden;rounded=0;" parent="1" vertex="1">
          <mxGeometry x="47" y="78" width="301" height="120" as="geometry" />
        </mxCell>
        <mxCell id="K2DvLzhH-67RUPODVml0-27" style="edgeStyle=orthogonalEdgeStyle;rounded=0;orthogonalLoop=1;jettySize=auto;html=1;exitX=1;exitY=0.5;exitDx=0;exitDy=0;entryX=0;entryY=0.25;entryDx=0;entryDy=0;" parent="1" source="K2DvLzhH-67RUPODVml0-1" target="K2DvLzhH-67RUPODVml0-4" edge="1">
          <mxGeometry relative="1" as="geometry" />
        </mxCell>
        <mxCell id="K2DvLzhH-67RUPODVml0-1" value="Informações sobre Ataque" style="rounded=0;whiteSpace=wrap;html=1;align=center;" parent="1" vertex="1">
          <mxGeometry x="280.5" y="417" width="120" height="60" as="geometry" />
        </mxCell>
        <mxCell id="K2DvLzhH-67RUPODVml0-28" style="edgeStyle=orthogonalEdgeStyle;rounded=0;orthogonalLoop=1;jettySize=auto;html=1;exitX=1;exitY=0.5;exitDx=0;exitDy=0;entryX=0;entryY=0.75;entryDx=0;entryDy=0;" parent="1" source="K2DvLzhH-67RUPODVml0-2" target="K2DvLzhH-67RUPODVml0-4" edge="1">
          <mxGeometry relative="1" as="geometry" />
        </mxCell>
        <mxCell id="K2DvLzhH-67RUPODVml0-2" value="Informações sobre Defesa" style="rounded=0;whiteSpace=wrap;html=1;align=center;" parent="1" vertex="1">
          <mxGeometry x="280.5" y="491" width="120" height="60" as="geometry" />
        </mxCell>
        <mxCell id="K2DvLzhH-67RUPODVml0-30" style="edgeStyle=orthogonalEdgeStyle;rounded=0;orthogonalLoop=1;jettySize=auto;html=1;exitX=1;exitY=0.5;exitDx=0;exitDy=0;entryX=0.5;entryY=1;entryDx=0;entryDy=0;" parent="1" source="K2DvLzhH-67RUPODVml0-3" target="K2DvLzhH-67RUPODVml0-4" edge="1">
          <mxGeometry relative="1" as="geometry" />
        </mxCell>
        <mxCell id="K2DvLzhH-67RUPODVml0-3" value="Outras estatísticas Variadas" style="rounded=0;whiteSpace=wrap;html=1;align=center;" parent="1" vertex="1">
          <mxGeometry x="280.5" y="564" width="120" height="60" as="geometry" />
        </mxCell>
        <mxCell id="K2DvLzhH-67RUPODVml0-4" value="União e consolidação dos dados" style="rounded=0;whiteSpace=wrap;html=1;" parent="1" vertex="1">
          <mxGeometry x="452" y="451" width="120" height="60" as="geometry" />
        </mxCell>
        <mxCell id="K2DvLzhH-67RUPODVml0-33" style="edgeStyle=orthogonalEdgeStyle;rounded=0;orthogonalLoop=1;jettySize=auto;html=1;exitX=0.5;exitY=1;exitDx=0;exitDy=0;exitPerimeter=0;entryX=0.5;entryY=0;entryDx=0;entryDy=0;" parent="1" source="K2DvLzhH-67RUPODVml0-5" target="K2DvLzhH-67RUPODVml0-11" edge="1">
          <mxGeometry relative="1" as="geometry" />
        </mxCell>
        <mxCell id="K2DvLzhH-67RUPODVml0-41" style="edgeStyle=orthogonalEdgeStyle;rounded=0;orthogonalLoop=1;jettySize=auto;html=1;exitX=1;exitY=0.5;exitDx=0;exitDy=0;exitPerimeter=0;entryX=0;entryY=0.5;entryDx=0;entryDy=0;" parent="1" source="K2DvLzhH-67RUPODVml0-5" target="K2DvLzhH-67RUPODVml0-7" edge="1">
          <mxGeometry relative="1" as="geometry" />
        </mxCell>
        <mxCell id="K2DvLzhH-67RUPODVml0-5" value="Banco de Dados - Partidas" style="shape=cylinder3;whiteSpace=wrap;html=1;boundedLbl=1;backgroundOutline=1;size=15;fillColor=#f5f5f5;fontColor=#333333;strokeColor=#666666;fontStyle=1" parent="1" vertex="1">
          <mxGeometry x="629" y="419" width="110" height="124" as="geometry" />
        </mxCell>
        <mxCell id="K2DvLzhH-67RUPODVml0-6" value="Dashboard" style="rounded=1;whiteSpace=wrap;html=1;fillColor=#dae8fc;strokeColor=#6c8ebf;fontStyle=1" parent="1" vertex="1">
          <mxGeometry x="946" y="349" width="120" height="60" as="geometry" />
        </mxCell>
        <mxCell id="K2DvLzhH-67RUPODVml0-7" value="Deploy do modelo em Produção" style="rounded=1;whiteSpace=wrap;html=1;fillColor=#dae8fc;strokeColor=#6c8ebf;fontStyle=1" parent="1" vertex="1">
          <mxGeometry x="946" y="471" width="120" height="60" as="geometry" />
        </mxCell>
        <mxCell id="K2DvLzhH-67RUPODVml0-11" value="Cálculo de estatísticas das últimas 5 rodadas por equipe (médias moveis, somas, etc.)" style="rounded=0;whiteSpace=wrap;html=1;" parent="1" vertex="1">
          <mxGeometry x="599" y="588" width="170" height="82" as="geometry" />
        </mxCell>
        <mxCell id="K2DvLzhH-67RUPODVml0-36" style="edgeStyle=orthogonalEdgeStyle;rounded=0;orthogonalLoop=1;jettySize=auto;html=1;exitX=1;exitY=0.5;exitDx=0;exitDy=0;entryX=0;entryY=0.5;entryDx=0;entryDy=0;" parent="1" source="K2DvLzhH-67RUPODVml0-12" target="K2DvLzhH-67RUPODVml0-17" edge="1">
          <mxGeometry relative="1" as="geometry" />
        </mxCell>
        <mxCell id="K2DvLzhH-67RUPODVml0-12" value="Modelagem Preditiva - Machine Learning (treino e teste)" style="rounded=0;whiteSpace=wrap;html=1;" parent="1" vertex="1">
          <mxGeometry x="788" y="750" width="120" height="60" as="geometry" />
        </mxCell>
        <mxCell id="K2DvLzhH-67RUPODVml0-39" style="edgeStyle=orthogonalEdgeStyle;rounded=0;orthogonalLoop=1;jettySize=auto;html=1;exitX=0.5;exitY=0;exitDx=0;exitDy=0;entryX=0.5;entryY=1;entryDx=0;entryDy=0;" parent="1" source="K2DvLzhH-67RUPODVml0-13" target="K2DvLzhH-67RUPODVml0-7" edge="1">
          <mxGeometry relative="1" as="geometry" />
        </mxCell>
        <mxCell id="K2DvLzhH-67RUPODVml0-13" value="&lt;span style=&quot;background-color: rgb(230, 230, 230);&quot;&gt;Serialização do modelo (joblib)&lt;/span&gt;" style="rhombus;whiteSpace=wrap;html=1;fillColor=#fff2cc;strokeColor=#d6b656;" parent="1" vertex="1">
          <mxGeometry x="1105.5" y="607" width="93" height="86" as="geometry" />
        </mxCell>
        <mxCell id="K2DvLzhH-67RUPODVml0-35" style="edgeStyle=orthogonalEdgeStyle;rounded=0;orthogonalLoop=1;jettySize=auto;html=1;exitX=1;exitY=0.5;exitDx=0;exitDy=0;exitPerimeter=0;entryX=0;entryY=0.5;entryDx=0;entryDy=0;" parent="1" source="K2DvLzhH-67RUPODVml0-14" target="K2DvLzhH-67RUPODVml0-12" edge="1">
          <mxGeometry relative="1" as="geometry" />
        </mxCell>
        <mxCell id="fiDRvgdctIuqGPahOh3_-5" value="" style="edgeStyle=orthogonalEdgeStyle;rounded=0;orthogonalLoop=1;jettySize=auto;html=1;" edge="1" parent="1" source="K2DvLzhH-67RUPODVml0-14" target="fiDRvgdctIuqGPahOh3_-4">
          <mxGeometry relative="1" as="geometry" />
        </mxCell>
        <mxCell id="K2DvLzhH-67RUPODVml0-14" value="Banco de Dados - Modelagem Preditiva" style="shape=cylinder3;whiteSpace=wrap;html=1;boundedLbl=1;backgroundOutline=1;size=15;fillColor=#f5f5f5;fontColor=#333333;strokeColor=#666666;fontStyle=1" parent="1" vertex="1">
          <mxGeometry x="629" y="718" width="110" height="124" as="geometry" />
        </mxCell>
        <mxCell id="K2DvLzhH-67RUPODVml0-38" style="edgeStyle=orthogonalEdgeStyle;rounded=0;orthogonalLoop=1;jettySize=auto;html=1;exitX=0.5;exitY=0;exitDx=0;exitDy=0;entryX=0.5;entryY=1;entryDx=0;entryDy=0;" parent="1" source="K2DvLzhH-67RUPODVml0-15" target="K2DvLzhH-67RUPODVml0-13" edge="1">
          <mxGeometry relative="1" as="geometry" />
        </mxCell>
        <mxCell id="K2DvLzhH-67RUPODVml0-15" value="Obtenção do modelo mais performático com base em métricas&amp;nbsp;" style="rounded=0;whiteSpace=wrap;html=1;" parent="1" vertex="1">
          <mxGeometry x="1092" y="750" width="120" height="60" as="geometry" />
        </mxCell>
        <mxCell id="K2DvLzhH-67RUPODVml0-37" style="edgeStyle=orthogonalEdgeStyle;rounded=0;orthogonalLoop=1;jettySize=auto;html=1;exitX=1;exitY=0.5;exitDx=0;exitDy=0;entryX=0;entryY=0.5;entryDx=0;entryDy=0;" parent="1" source="K2DvLzhH-67RUPODVml0-17" target="K2DvLzhH-67RUPODVml0-15" edge="1">
          <mxGeometry relative="1" as="geometry" />
        </mxCell>
        <mxCell id="K2DvLzhH-67RUPODVml0-17" value="Otimização de Hiperparâmetros" style="rounded=0;whiteSpace=wrap;html=1;" parent="1" vertex="1">
          <mxGeometry x="940" y="750" width="120" height="60" as="geometry" />
        </mxCell>
        <mxCell id="K2DvLzhH-67RUPODVml0-31" style="edgeStyle=orthogonalEdgeStyle;rounded=0;orthogonalLoop=1;jettySize=auto;html=1;exitX=1;exitY=0.5;exitDx=0;exitDy=0;entryX=0;entryY=0.5;entryDx=0;entryDy=0;entryPerimeter=0;" parent="1" source="K2DvLzhH-67RUPODVml0-4" target="K2DvLzhH-67RUPODVml0-5" edge="1">
          <mxGeometry relative="1" as="geometry" />
        </mxCell>
        <mxCell id="K2DvLzhH-67RUPODVml0-34" style="edgeStyle=orthogonalEdgeStyle;rounded=0;orthogonalLoop=1;jettySize=auto;html=1;exitX=0.5;exitY=1;exitDx=0;exitDy=0;entryX=0.5;entryY=0;entryDx=0;entryDy=0;entryPerimeter=0;" parent="1" source="K2DvLzhH-67RUPODVml0-11" target="K2DvLzhH-67RUPODVml0-14" edge="1">
          <mxGeometry relative="1" as="geometry" />
        </mxCell>
        <mxCell id="K2DvLzhH-67RUPODVml0-40" style="edgeStyle=orthogonalEdgeStyle;rounded=0;orthogonalLoop=1;jettySize=auto;html=1;exitX=1;exitY=0.5;exitDx=0;exitDy=0;exitPerimeter=0;entryX=0.008;entryY=0.383;entryDx=0;entryDy=0;entryPerimeter=0;" parent="1" source="K2DvLzhH-67RUPODVml0-5" target="K2DvLzhH-67RUPODVml0-6" edge="1">
          <mxGeometry relative="1" as="geometry" />
        </mxCell>
        <mxCell id="fiDRvgdctIuqGPahOh3_-3" value="&lt;b&gt;&lt;font color=&quot;#66b2ff&quot; style=&quot;font-size: 20px;&quot;&gt;Fase de Obtenção dos Dados&lt;/font&gt;&lt;/b&gt;" style="text;html=1;align=center;verticalAlign=middle;whiteSpace=wrap;rounded=0;" vertex="1" parent="1">
          <mxGeometry x="64" y="284" width="328" height="30" as="geometry" />
        </mxCell>
        <mxCell id="fiDRvgdctIuqGPahOh3_-4" value="&lt;b&gt;&lt;font color=&quot;#adbdac&quot; style=&quot;font-size: 20px;&quot;&gt;Fase de Modelagem Preditiva&lt;/font&gt;&lt;/b&gt;" style="text;html=1;align=center;verticalAlign=middle;whiteSpace=wrap;rounded=0;" vertex="1" parent="1">
          <mxGeometry x="593" y="874" width="357" height="30" as="geometry" />
        </mxCell>
        <mxCell id="fiDRvgdctIuqGPahOh3_-7" value="&lt;b&gt;&lt;font color=&quot;#dec8b1&quot; style=&quot;font-size: 20px;&quot;&gt;Fase de Implantação&lt;/font&gt;&lt;/b&gt;" style="text;html=1;align=center;verticalAlign=middle;whiteSpace=wrap;rounded=0;" vertex="1" parent="1">
          <mxGeometry x="996" y="284" width="234" height="30" as="geometry" />
        </mxCell>
      </root>
    </mxGraphModel>
  </diagram>
</mxfile>
